<mxfile host="app.diagrams.net" modified="2024-06-03T16:25:02.658Z" agent="Mozilla/5.0 (Windows NT 10.0; Win64; x64) AppleWebKit/537.36 (KHTML, like Gecko) Chrome/125.0.0.0 Safari/537.36 Edg/125.0.0.0" version="24.4.13" etag="4wmQMsbwdZy-77mQ0KE6" type="github">
  <diagram name="Page-1" id="cEL3ut-P1BA_dg0siKAT">
    <mxGraphModel>
      <root>
        <mxCell id="0" />
        <mxCell id="1" parent="0" />
      </root>
    </mxGraphModel>
  </diagram>
</mxfile>
